<svg width="147" height="32" viewBox="0 0 147 32" fill="none" xmlns="http://www.w3.org/2000/svg">
<path d="M16 32C24.8366 32 32 24.8366 32 16C32 7.16344 24.8366 0 16 0C7.16344 0 0 7.16344 0 16C0 24.8366 7.16344 32 16 32Z" fill="url(#paint0_linear_5803_159)"/>
<path fill-rule="evenodd" clip-rule="evenodd" d="M18.0935 8.9993C18.0935 6.32558 19.4614 5.94235 21.1488 5.94235V17.879C21.1488 19.2786 20.7288 20.5799 20.0081 21.6638H20.1303C22.6108 21.6638 23.1856 23.0325 23.1856 24.7208H14.3109C10.5345 24.7208 7.47302 21.6576 7.47302 17.879C7.47302 14.1004 10.5345 11.0373 14.3109 11.0373C15.7096 11.0373 17.0102 11.4574 18.0935 12.1786V8.9993ZM14.3109 21.6638C16.4 21.6638 18.0935 19.9693 18.0935 17.879C18.0935 15.7887 16.4 14.0942 14.3109 14.0942C12.2218 14.0942 10.5282 15.7887 10.5282 17.879C10.5282 19.9693 12.2218 21.6638 14.3109 21.6638Z" fill="white"/>
<path fill-rule="evenodd" clip-rule="evenodd" d="M100.944 2.69226C100.689 2.69226 100.482 2.8989 100.482 3.1538V18.5384C100.482 18.7933 100.689 19 100.944 19H102.328C102.583 19 102.79 18.7933 102.79 18.5384V17.9288C103.803 18.7428 105.082 19.2307 106.482 19.2307C109.83 19.2307 112.482 16.4413 112.482 13.0769C112.482 9.71246 109.83 6.92303 106.482 6.92303C105.082 6.92303 103.803 7.411 102.79 8.22491V3.1538C102.79 2.8989 102.583 2.69226 102.328 2.69226H100.944ZM106.482 16.923C104.477 16.923 102.79 15.2353 102.79 13.0769C102.79 10.9184 104.477 9.23072 106.482 9.23072C108.488 9.23072 110.174 10.9184 110.174 13.0769C110.174 15.2353 108.488 16.923 106.482 16.923Z" fill="#110622"/>
<path d="M127.867 3.92303L129.567 3.3563C129.866 3.25668 130.174 3.47912 130.174 3.79415V7.1538H134.021C134.275 7.1538 134.482 7.36044 134.482 7.61534V8.99995C134.482 9.25485 134.275 9.46149 134.021 9.46149L130.174 9.46149V15.531C130.174 16.3423 130.832 17 131.643 17C132.325 17 132.993 16.8068 133.569 16.4428C133.733 16.3392 133.95 16.3882 134.054 16.5522L135.098 18.2063L134.801 18.3939C133.856 18.9908 132.761 19.3076 131.643 19.3076C129.558 19.3076 127.867 17.6168 127.867 15.531V3.92303Z" fill="#110622"/>
<path d="M87.0205 14.6153V7.69226C87.0205 7.43736 87.2272 7.23072 87.4821 7.23072H88.8667C89.1216 7.23072 89.3282 7.43736 89.3282 7.69226V14.4615C89.3282 15.8461 90.3959 17 91.7129 17H91.8667C94.0975 17 95.4821 15.2274 95.4821 13.2307V7.69226C95.4821 7.43736 95.6887 7.23072 95.9436 7.23072H97.3282C97.5831 7.23072 97.7898 7.43736 97.7898 7.69226V18.5384C97.7898 18.7933 97.5831 19 97.3282 19H95.9436C95.6887 19 95.4821 18.7933 95.4821 18.5384V17.7689C94.4818 18.5408 93.2279 19.2307 91.8667 19.2307H91.7129C89.1214 19.2307 87.0205 17.2068 87.0205 14.6153Z" fill="#110622"/>
<path fill-rule="evenodd" clip-rule="evenodd" d="M123.097 17.9288V18.5384C123.097 18.7933 123.304 19 123.559 19H124.944C125.199 19 125.405 18.7933 125.405 18.5384V7.69226C125.405 7.43736 125.199 7.23072 124.944 7.23072H123.559C123.304 7.23072 123.097 7.43736 123.097 7.69226V8.22491C122.084 7.411 120.805 6.92303 119.405 6.92303C116.058 6.92303 113.405 9.71246 113.405 13.0769C113.405 16.4413 116.058 19.2307 119.405 19.2307C120.805 19.2307 122.084 18.7428 123.097 17.9288ZM123.097 13.0769C123.097 10.9184 121.411 9.23072 119.405 9.23072C117.4 9.23072 115.713 10.9184 115.713 13.0769C115.713 15.2353 117.4 16.923 119.405 16.923C121.411 16.923 123.097 15.2353 123.097 13.0769Z" fill="#110622"/>
<path fill-rule="evenodd" clip-rule="evenodd" d="M45.8667 3.23072C45.8667 2.97582 46.0733 2.76918 46.3282 2.76918H52.4821C56.603 2.76918 59.9436 6.10983 59.9436 10.2307V11.4615C59.9436 15.5824 56.603 18.923 52.4821 18.923H46.3282C46.0733 18.923 45.8667 18.7164 45.8667 18.4615V3.23072ZM48.1744 5.07688V16.6153H52.4821C55.3285 16.6153 57.6359 14.3079 57.6359 11.4615V10.2307C57.6359 7.38433 55.3285 5.07688 52.4821 5.07688H48.1744Z" fill="#110622"/>
<path d="M76.3282 13.0769C76.3282 10.9184 78.0151 9.23072 80.0205 9.23072C81.6174 9.23072 83.007 10.2944 83.5127 11.8238L85.2655 11.2441C85.5075 11.1641 85.6404 10.9022 85.5426 10.6668C84.6347 8.4824 82.5189 6.92303 80.0205 6.92303C76.6731 6.92303 74.0205 9.71246 74.0205 13.0769C74.0205 16.4413 76.6731 19.2307 80.0205 19.2307C82.4837 19.2307 84.5754 17.7146 85.5036 15.5788C85.6052 15.345 85.4765 15.081 85.2358 14.9971L83.4925 14.3894C82.9705 15.8872 81.5967 16.923 80.0205 16.923C78.0151 16.923 76.3282 15.2353 76.3282 13.0769Z" fill="#110622"/>
<path fill-rule="evenodd" clip-rule="evenodd" d="M63.7217 14.0769H72.7898C72.7898 14.0769 72.9436 13.4615 72.9436 12.923C72.9436 9.61257 70.6498 6.92303 67.2513 6.92303C63.9509 6.92303 61.2513 9.51114 61.2513 12.923C61.2513 16.2411 63.8599 19.2307 67.2513 19.2307C68.0693 19.2307 68.9398 19.1939 69.8741 18.8691C70.7825 18.5533 71.6687 17.9961 72.6359 17.0906C72.6359 17.0906 71.9024 16.1999 71.4502 15.6698C71.2848 15.4759 70.9975 15.4675 70.8056 15.6353C70.1304 16.2257 69.5893 16.5249 69.1163 16.6893C68.5594 16.883 68.0068 16.923 67.2513 16.923C65.6465 16.923 64.1961 15.7214 63.7217 14.0769ZM67.2513 9.23072C65.5943 9.23072 64.2063 10.2613 63.7329 11.7692H70.4933C70.0857 10.2112 68.8422 9.23072 67.2513 9.23072Z" fill="#110622"/>
<path fill-rule="evenodd" clip-rule="evenodd" d="M137.183 14.0769H146.251C146.251 14.0769 146.405 13.4615 146.405 12.923C146.405 9.61257 144.111 6.92303 140.713 6.92303C137.412 6.92303 134.713 9.51114 134.713 12.923C134.713 16.2411 137.321 19.2307 140.713 19.2307C141.531 19.2307 142.401 19.1939 143.336 18.8691C144.244 18.5533 145.13 17.9961 146.097 17.0906C146.097 17.0906 145.364 16.1999 144.912 15.6698C144.746 15.4759 144.459 15.4675 144.267 15.6353C143.592 16.2257 143.051 16.5249 142.578 16.6893C142.021 16.883 141.468 16.923 140.713 16.923C139.108 16.923 137.658 15.7214 137.183 14.0769ZM140.713 9.23072C139.056 9.23072 137.668 10.2613 137.194 11.7692H143.955C143.547 10.2112 142.304 9.23072 140.713 9.23072Z" fill="#110622"/>
<path d="M144.219 28.5117C144.219 28.4102 144.204 28.319 144.173 28.2383C144.144 28.1549 144.089 28.0794 144.009 28.0117C143.928 27.9414 143.815 27.8724 143.669 27.8047C143.523 27.737 143.334 27.6667 143.102 27.5938C142.844 27.5104 142.6 27.4167 142.368 27.3125C142.139 27.2083 141.936 27.0872 141.759 26.9492C141.584 26.8086 141.446 26.6458 141.344 26.4609C141.246 26.276 141.196 26.0612 141.196 25.8164C141.196 25.5794 141.248 25.3646 141.352 25.1719C141.456 24.9766 141.602 24.8099 141.79 24.6719C141.977 24.5312 142.199 24.4232 142.454 24.3477C142.712 24.2721 142.994 24.2344 143.302 24.2344C143.721 24.2344 144.087 24.3099 144.399 24.4609C144.712 24.612 144.954 24.819 145.126 25.082C145.3 25.3451 145.387 25.6458 145.387 25.9844H144.223C144.223 25.8177 144.188 25.6719 144.118 25.5469C144.05 25.4193 143.946 25.319 143.805 25.2461C143.667 25.1732 143.493 25.1367 143.282 25.1367C143.079 25.1367 142.91 25.168 142.774 25.2305C142.639 25.2904 142.537 25.3724 142.469 25.4766C142.402 25.5781 142.368 25.6927 142.368 25.8203C142.368 25.9167 142.391 26.0039 142.438 26.082C142.488 26.1602 142.561 26.2331 142.657 26.3008C142.753 26.3685 142.872 26.4323 143.012 26.4922C143.153 26.5521 143.316 26.6107 143.501 26.668C143.811 26.7617 144.083 26.8672 144.317 26.9844C144.554 27.1016 144.752 27.2331 144.911 27.3789C145.07 27.5247 145.19 27.6901 145.27 27.875C145.351 28.0599 145.391 28.2695 145.391 28.5039C145.391 28.7513 145.343 28.9727 145.247 29.168C145.15 29.3633 145.011 29.5286 144.829 29.6641C144.647 29.7995 144.429 29.9023 144.177 29.9727C143.924 30.043 143.641 30.0781 143.329 30.0781C143.048 30.0781 142.77 30.0417 142.497 29.9688C142.223 29.8932 141.975 29.7799 141.751 29.6289C141.529 29.4779 141.352 29.2852 141.219 29.0508C141.087 28.8164 141.02 28.5391 141.02 28.2188H142.196C142.196 28.3958 142.223 28.5456 142.278 28.668C142.333 28.7904 142.41 28.8893 142.509 28.9648C142.61 29.0404 142.73 29.0951 142.868 29.1289C143.009 29.1628 143.162 29.1797 143.329 29.1797C143.532 29.1797 143.699 29.151 143.829 29.0938C143.962 29.0365 144.059 28.957 144.122 28.8555C144.187 28.7539 144.219 28.6393 144.219 28.5117Z" fill="#110622"/>
<path d="M136.815 29.0859V30H133.788V29.0859H136.815ZM134.17 24.3125V30H132.999V24.3125H134.17ZM136.42 26.6289V27.5195H133.788V26.6289H136.42ZM136.811 24.3125V25.2305H133.788V24.3125H136.811Z" fill="#110622"/>
<path d="M128.141 24.3125V30H126.973V24.3125H128.141Z" fill="#110622"/>
<path d="M122.189 27.0273V29.2812C122.101 29.388 121.964 29.5039 121.779 29.6289C121.594 29.7513 121.356 29.8568 121.064 29.9453C120.773 30.0339 120.42 30.0781 120.006 30.0781C119.639 30.0781 119.304 30.0182 119.002 29.8984C118.7 29.776 118.439 29.5977 118.221 29.3633C118.005 29.1289 117.838 28.8424 117.721 28.5039C117.604 28.1628 117.545 27.7734 117.545 27.3359V26.9805C117.545 26.543 117.601 26.1536 117.713 25.8125C117.827 25.4714 117.99 25.1836 118.201 24.9492C118.412 24.7148 118.663 24.5365 118.955 24.4141C119.247 24.2917 119.571 24.2305 119.928 24.2305C120.423 24.2305 120.829 24.3112 121.146 24.4727C121.464 24.6315 121.706 24.8529 121.873 25.1367C122.042 25.418 122.146 25.7409 122.186 26.1055H121.049C121.02 25.9128 120.965 25.7448 120.885 25.6016C120.804 25.4583 120.688 25.3464 120.537 25.2656C120.389 25.1849 120.196 25.1445 119.959 25.1445C119.764 25.1445 119.589 25.1849 119.436 25.2656C119.285 25.3438 119.157 25.4596 119.053 25.6133C118.949 25.7669 118.869 25.957 118.814 26.1836C118.76 26.4102 118.732 26.6732 118.732 26.9727V27.3359C118.732 27.6328 118.761 27.8958 118.818 28.125C118.876 28.3516 118.96 28.543 119.072 28.6992C119.187 28.8529 119.327 28.9688 119.494 29.0469C119.661 29.125 119.855 29.1641 120.076 29.1641C120.261 29.1641 120.415 29.1484 120.537 29.1172C120.662 29.0859 120.762 29.0482 120.838 29.0039C120.916 28.957 120.976 28.9128 121.018 28.8711V27.8633H119.947V27.0273H122.189Z" fill="#110622"/>
<path d="M113.078 27.0234V27.293C113.078 27.7253 113.019 28.1133 112.902 28.457C112.785 28.8008 112.62 29.0938 112.406 29.3359C112.192 29.5755 111.937 29.7591 111.64 29.8867C111.346 30.0143 111.019 30.0781 110.66 30.0781C110.303 30.0781 109.976 30.0143 109.679 29.8867C109.385 29.7591 109.13 29.5755 108.914 29.3359C108.698 29.0938 108.53 28.8008 108.41 28.457C108.293 28.1133 108.234 27.7253 108.234 27.293V27.0234C108.234 26.5885 108.293 26.2005 108.41 25.8594C108.527 25.5156 108.692 25.2227 108.906 24.9805C109.122 24.7383 109.377 24.5534 109.672 24.4258C109.969 24.2982 110.295 24.2344 110.652 24.2344C111.011 24.2344 111.338 24.2982 111.633 24.4258C111.929 24.5534 112.185 24.7383 112.398 24.9805C112.614 25.2227 112.781 25.5156 112.898 25.8594C113.018 26.2005 113.078 26.5885 113.078 27.0234ZM111.894 27.293V27.0156C111.894 26.7135 111.867 26.4479 111.812 26.2188C111.758 25.9896 111.677 25.7969 111.57 25.6406C111.463 25.4844 111.333 25.3672 111.179 25.2891C111.026 25.2083 110.85 25.168 110.652 25.168C110.454 25.168 110.278 25.2083 110.125 25.2891C109.974 25.3672 109.845 25.4844 109.738 25.6406C109.634 25.7969 109.554 25.9896 109.5 26.2188C109.445 26.4479 109.418 26.7135 109.418 27.0156V27.293C109.418 27.5924 109.445 27.8581 109.5 28.0898C109.554 28.319 109.635 28.513 109.742 28.6719C109.849 28.8281 109.979 28.9466 110.133 29.0273C110.286 29.1081 110.462 29.1484 110.66 29.1484C110.858 29.1484 111.034 29.1081 111.187 29.0273C111.341 28.9466 111.47 28.8281 111.574 28.6719C111.678 28.513 111.758 28.319 111.812 28.0898C111.867 27.8581 111.894 27.5924 111.894 27.293Z" fill="#110622"/>
<path d="M104.232 29.0859V30H101.369V29.0859H104.232ZM101.748 24.3125V30H100.576V24.3125H101.748Z" fill="#110622"/>
<path d="M95.9719 27.0234V27.293C95.9719 27.7253 95.9133 28.1133 95.7961 28.457C95.679 28.8008 95.5136 29.0938 95.3 29.3359C95.0865 29.5755 94.8313 29.7591 94.5344 29.8867C94.2402 30.0143 93.9133 30.0781 93.554 30.0781C93.1972 30.0781 92.8704 30.0143 92.5735 29.8867C92.2792 29.7591 92.024 29.5755 91.8079 29.3359C91.5917 29.0938 91.4237 28.8008 91.304 28.457C91.1868 28.1133 91.1282 27.7253 91.1282 27.293V27.0234C91.1282 26.5885 91.1868 26.2005 91.304 25.8594C91.4211 25.5156 91.5865 25.2227 91.8 24.9805C92.0162 24.7383 92.2714 24.5534 92.5657 24.4258C92.8625 24.2982 93.1894 24.2344 93.5461 24.2344C93.9055 24.2344 94.2323 24.2982 94.5266 24.4258C94.8235 24.5534 95.0787 24.7383 95.2922 24.9805C95.5084 25.2227 95.675 25.5156 95.7922 25.8594C95.912 26.2005 95.9719 26.5885 95.9719 27.0234ZM94.7883 27.293V27.0156C94.7883 26.7135 94.761 26.4479 94.7063 26.2188C94.6516 25.9896 94.5709 25.7969 94.4641 25.6406C94.3573 25.4844 94.2271 25.3672 94.0735 25.2891C93.9198 25.2083 93.7441 25.168 93.5461 25.168C93.3482 25.168 93.1724 25.2083 93.0188 25.2891C92.8678 25.3672 92.7389 25.4844 92.6321 25.6406C92.5279 25.7969 92.4485 25.9896 92.3938 26.2188C92.3391 26.4479 92.3118 26.7135 92.3118 27.0156V27.293C92.3118 27.5924 92.3391 27.8581 92.3938 28.0898C92.4485 28.319 92.5292 28.513 92.636 28.6719C92.7428 28.8281 92.873 28.9466 93.0266 29.0273C93.1803 29.1081 93.356 29.1484 93.554 29.1484C93.7519 29.1484 93.9277 29.1081 94.0813 29.0273C94.2349 28.9466 94.3639 28.8281 94.468 28.6719C94.5722 28.513 94.6516 28.319 94.7063 28.0898C94.761 27.8581 94.7883 27.5924 94.7883 27.293Z" fill="#110622"/>
<path d="M86.5205 24.3125V30H85.3486L83.0635 26.1875V30H81.8916V24.3125H83.0635L85.3525 28.1289V24.3125H86.5205Z" fill="#110622"/>
<path d="M76.2761 26.6289V27.543H73.3074V26.6289H76.2761ZM73.655 24.3125V30H72.4832V24.3125H73.655ZM77.1121 24.3125V30H75.9441V24.3125H77.1121Z" fill="#110622"/>
<path d="M66.7856 28.1133H67.9536C67.9302 28.4961 67.8247 28.8359 67.6372 29.1328C67.4523 29.4297 67.1932 29.6615 66.8599 29.8281C66.5291 29.9948 66.1307 30.0781 65.6646 30.0781C65.3 30.0781 64.9731 30.0156 64.6841 29.8906C64.395 29.763 64.1476 29.5807 63.9419 29.3438C63.7388 29.1068 63.5838 28.8203 63.4771 28.4844C63.3703 28.1484 63.3169 27.7721 63.3169 27.3555V26.9609C63.3169 26.5443 63.3716 26.168 63.481 25.832C63.5929 25.4935 63.7518 25.2057 63.9575 24.9688C64.1659 24.7318 64.4146 24.5495 64.7036 24.4219C64.9927 24.2943 65.3156 24.2305 65.6724 24.2305C66.1463 24.2305 66.5461 24.3164 66.8716 24.4883C67.1997 24.6602 67.4536 24.8971 67.6333 25.1992C67.8156 25.5013 67.925 25.8451 67.9614 26.2305H66.7896C66.7765 26.0013 66.731 25.8073 66.6528 25.6484C66.5747 25.487 66.4562 25.3659 66.2974 25.2852C66.1411 25.2018 65.9328 25.1602 65.6724 25.1602C65.4771 25.1602 65.3065 25.1966 65.1606 25.2695C65.0148 25.3424 64.8924 25.4531 64.7935 25.6016C64.6945 25.75 64.6203 25.9375 64.5708 26.1641C64.5239 26.388 64.5005 26.651 64.5005 26.9531V27.3555C64.5005 27.6497 64.5226 27.9089 64.5669 28.1328C64.6112 28.3542 64.6789 28.5417 64.77 28.6953C64.8638 28.8464 64.9836 28.9609 65.1294 29.0391C65.2778 29.1146 65.4562 29.1523 65.6646 29.1523C65.9093 29.1523 66.1112 29.1133 66.27 29.0352C66.4289 28.957 66.55 28.8411 66.6333 28.6875C66.7192 28.5339 66.77 28.3424 66.7856 28.1133Z" fill="#110622"/>
<path d="M59.0452 29.0859V30H56.0178V29.0859H59.0452ZM56.4006 24.3125V30H55.2288V24.3125H56.4006ZM58.6506 26.6289V27.5195H56.0178V26.6289H58.6506ZM59.0413 24.3125V25.2305H56.0178V24.3125H59.0413Z" fill="#110622"/>
<path d="M49.0508 24.3125V30H47.8828V24.3125H49.0508ZM50.8008 24.3125V25.2305H46.1602V24.3125H50.8008Z" fill="#110622"/>
<defs>
<linearGradient id="paint0_linear_5803_159" x1="4.8" y1="27.2" x2="27.4338" y2="4.56615" gradientUnits="userSpaceOnUse">
<stop stop-color="#C91857"/>
<stop offset="1" stop-color="#3F0C78"/>
</linearGradient>
</defs>
</svg>
