<svg width="147" height="32" viewBox="0 0 147 32" fill="none" xmlns="http://www.w3.org/2000/svg">
<path d="M16 32C24.8366 32 32 24.8366 32 16C32 7.16344 24.8366 0 16 0C7.16344 0 0 7.16344 0 16C0 24.8366 7.16344 32 16 32Z" fill="url(#paint0_linear_5803_156)"/>
<path fill-rule="evenodd" clip-rule="evenodd" d="M18.0935 8.9993C18.0935 6.32558 19.4614 5.94235 21.1488 5.94235V17.879C21.1488 19.2786 20.7288 20.5799 20.0081 21.6638H20.1303C22.6108 21.6638 23.1856 23.0325 23.1856 24.7208H14.3109C10.5345 24.7208 7.47302 21.6576 7.47302 17.879C7.47302 14.1004 10.5345 11.0373 14.3109 11.0373C15.7096 11.0373 17.0102 11.4574 18.0935 12.1786V8.9993ZM14.3109 21.6638C16.4 21.6638 18.0935 19.9693 18.0935 17.879C18.0935 15.7887 16.4 14.0942 14.3109 14.0942C12.2218 14.0942 10.5282 15.7887 10.5282 17.879C10.5282 19.9693 12.2218 21.6638 14.3109 21.6638Z" fill="white"/>
<path fill-rule="evenodd" clip-rule="evenodd" d="M100.944 2.69226C100.689 2.69226 100.482 2.8989 100.482 3.1538V18.5384C100.482 18.7933 100.689 19 100.944 19H102.328C102.583 19 102.79 18.7933 102.79 18.5384V17.9288C103.803 18.7428 105.082 19.2307 106.482 19.2307C109.83 19.2307 112.482 16.4413 112.482 13.0769C112.482 9.71246 109.83 6.92303 106.482 6.92303C105.082 6.92303 103.803 7.411 102.79 8.22491V3.1538C102.79 2.8989 102.583 2.69226 102.328 2.69226H100.944ZM106.482 16.923C104.477 16.923 102.79 15.2353 102.79 13.0769C102.79 10.9184 104.477 9.23072 106.482 9.23072C108.488 9.23072 110.174 10.9184 110.174 13.0769C110.174 15.2353 108.488 16.923 106.482 16.923Z" fill="#F3EEFC"/>
<path d="M127.867 3.92303L129.567 3.3563C129.866 3.25668 130.174 3.47912 130.174 3.79415V7.1538H134.021C134.275 7.1538 134.482 7.36044 134.482 7.61534V8.99995C134.482 9.25485 134.275 9.46149 134.021 9.46149L130.174 9.46149V15.531C130.174 16.3423 130.832 17 131.643 17C132.325 17 132.993 16.8068 133.569 16.4428C133.733 16.3392 133.95 16.3882 134.054 16.5522L135.098 18.2063L134.801 18.3939C133.856 18.9908 132.761 19.3076 131.643 19.3076C129.558 19.3076 127.867 17.6168 127.867 15.531V3.92303Z" fill="#F3EEFC"/>
<path d="M87.0205 14.6153V7.69226C87.0205 7.43736 87.2272 7.23072 87.4821 7.23072H88.8667C89.1216 7.23072 89.3282 7.43736 89.3282 7.69226V14.4615C89.3282 15.8461 90.3959 17 91.7129 17H91.8667C94.0975 17 95.4821 15.2274 95.4821 13.2307V7.69226C95.4821 7.43736 95.6887 7.23072 95.9436 7.23072H97.3282C97.5831 7.23072 97.7898 7.43736 97.7898 7.69226V18.5384C97.7898 18.7933 97.5831 19 97.3282 19H95.9436C95.6887 19 95.4821 18.7933 95.4821 18.5384V17.7689C94.4818 18.5408 93.2279 19.2307 91.8667 19.2307H91.7129C89.1214 19.2307 87.0205 17.2068 87.0205 14.6153Z" fill="#F3EEFC"/>
<path fill-rule="evenodd" clip-rule="evenodd" d="M123.097 17.9288V18.5384C123.097 18.7933 123.304 19 123.559 19H124.944C125.199 19 125.405 18.7933 125.405 18.5384V7.69226C125.405 7.43736 125.199 7.23072 124.944 7.23072H123.559C123.304 7.23072 123.097 7.43736 123.097 7.69226V8.22491C122.084 7.411 120.805 6.92303 119.405 6.92303C116.058 6.92303 113.405 9.71246 113.405 13.0769C113.405 16.4413 116.058 19.2307 119.405 19.2307C120.805 19.2307 122.084 18.7428 123.097 17.9288ZM123.097 13.0769C123.097 10.9184 121.411 9.23072 119.405 9.23072C117.4 9.23072 115.713 10.9184 115.713 13.0769C115.713 15.2353 117.4 16.923 119.405 16.923C121.411 16.923 123.097 15.2353 123.097 13.0769Z" fill="#F3EEFC"/>
<path fill-rule="evenodd" clip-rule="evenodd" d="M45.8667 3.23072C45.8667 2.97582 46.0733 2.76918 46.3282 2.76918H52.4821C56.603 2.76918 59.9436 6.10983 59.9436 10.2307V11.4615C59.9436 15.5824 56.603 18.923 52.4821 18.923H46.3282C46.0733 18.923 45.8667 18.7164 45.8667 18.4615V3.23072ZM48.1744 5.07688V16.6153H52.4821C55.3285 16.6153 57.6359 14.3079 57.6359 11.4615V10.2307C57.6359 7.38433 55.3285 5.07688 52.4821 5.07688H48.1744Z" fill="#F3EEFC"/>
<path d="M76.3282 13.0769C76.3282 10.9184 78.0151 9.23072 80.0205 9.23072C81.6174 9.23072 83.007 10.2944 83.5127 11.8238L85.2655 11.2441C85.5075 11.1641 85.6404 10.9022 85.5426 10.6668C84.6347 8.4824 82.5189 6.92303 80.0205 6.92303C76.6731 6.92303 74.0205 9.71246 74.0205 13.0769C74.0205 16.4413 76.6731 19.2307 80.0205 19.2307C82.4837 19.2307 84.5754 17.7146 85.5036 15.5788C85.6052 15.345 85.4765 15.081 85.2358 14.9971L83.4925 14.3894C82.9705 15.8872 81.5967 16.923 80.0205 16.923C78.0151 16.923 76.3282 15.2353 76.3282 13.0769Z" fill="#F3EEFC"/>
<path fill-rule="evenodd" clip-rule="evenodd" d="M63.7217 14.0769H72.7898C72.7898 14.0769 72.9436 13.4615 72.9436 12.923C72.9436 9.61257 70.6498 6.92303 67.2513 6.92303C63.9509 6.92303 61.2513 9.51114 61.2513 12.923C61.2513 16.2411 63.8599 19.2307 67.2513 19.2307C68.0693 19.2307 68.9398 19.1939 69.8741 18.8691C70.7825 18.5533 71.6687 17.9961 72.6359 17.0906C72.6359 17.0906 71.9024 16.1999 71.4502 15.6698C71.2848 15.4759 70.9975 15.4675 70.8056 15.6353C70.1304 16.2257 69.5893 16.5249 69.1163 16.6893C68.5594 16.883 68.0068 16.923 67.2513 16.923C65.6465 16.923 64.1961 15.7214 63.7217 14.0769ZM67.2513 9.23072C65.5943 9.23072 64.2063 10.2613 63.7329 11.7692H70.4933C70.0857 10.2112 68.8422 9.23072 67.2513 9.23072Z" fill="#F3EEFC"/>
<path fill-rule="evenodd" clip-rule="evenodd" d="M137.183 14.0769H146.251C146.251 14.0769 146.405 13.4615 146.405 12.923C146.405 9.61257 144.111 6.92303 140.713 6.92303C137.412 6.92303 134.713 9.51114 134.713 12.923C134.713 16.2411 137.321 19.2307 140.713 19.2307C141.531 19.2307 142.401 19.1939 143.336 18.8691C144.244 18.5533 145.13 17.9961 146.097 17.0906C146.097 17.0906 145.364 16.1999 144.912 15.6698C144.746 15.4759 144.459 15.4675 144.267 15.6353C143.592 16.2257 143.051 16.5249 142.578 16.6893C142.021 16.883 141.468 16.923 140.713 16.923C139.108 16.923 137.658 15.7214 137.183 14.0769ZM140.713 9.23072C139.056 9.23072 137.668 10.2613 137.194 11.7692H143.955C143.547 10.2112 142.304 9.23072 140.713 9.23072Z" fill="#F3EEFC"/>
<path d="M50.1641 29.0859V30H47.3008V29.0859H50.1641ZM47.6797 24.3125V30H46.5078V24.3125H47.6797ZM58.9866 25.2852L57.4397 30H56.1936L58.3069 24.3125H59.0998L58.9866 25.2852ZM60.2717 30L58.7209 25.2852L58.5959 24.3125H59.3967L61.5217 30H60.2717ZM60.2014 27.8828V28.8008H57.1975V27.8828H60.2014ZM70.8794 24.3125H72.0473V28.0703C72.0473 28.5078 71.9536 28.8763 71.7661 29.1758C71.5812 29.4753 71.3247 29.7005 70.9966 29.8516C70.671 30.0026 70.296 30.0781 69.8716 30.0781C69.4471 30.0781 69.0695 30.0026 68.7388 29.8516C68.4106 29.7005 68.1528 29.4753 67.9653 29.1758C67.7804 28.8763 67.688 28.5078 67.688 28.0703V24.3125H68.8598V28.0703C68.8598 28.3255 68.9002 28.5339 68.9809 28.6953C69.0617 28.8568 69.1776 28.9753 69.3286 29.0508C69.4822 29.1263 69.6632 29.1641 69.8716 29.1641C70.0851 29.1641 70.2661 29.1263 70.4145 29.0508C70.5656 28.9753 70.6802 28.8568 70.7583 28.6953C70.839 28.5339 70.8794 28.3255 70.8794 28.0703V24.3125ZM83.4011 24.3125V30H82.2292L79.9441 26.1875V30H78.7722V24.3125H79.9441L82.2331 28.1289V24.3125H83.4011ZM93.4775 28.1133H94.6455C94.622 28.4961 94.5166 28.8359 94.3291 29.1328C94.1442 29.4297 93.8851 29.6615 93.5517 29.8281C93.221 29.9948 92.8226 30.0781 92.3564 30.0781C91.9918 30.0781 91.665 30.0156 91.3759 29.8906C91.0869 29.763 90.8395 29.5807 90.6338 29.3438C90.4306 29.1068 90.2757 28.8203 90.1689 28.4844C90.0621 28.1484 90.0088 27.7721 90.0088 27.3555V26.9609C90.0088 26.5443 90.0634 26.168 90.1728 25.832C90.2848 25.4935 90.4436 25.2057 90.6494 24.9688C90.8577 24.7318 91.1064 24.5495 91.3955 24.4219C91.6845 24.2943 92.0074 24.2305 92.3642 24.2305C92.8382 24.2305 93.2379 24.3164 93.5634 24.4883C93.8916 24.6602 94.1455 24.8971 94.3252 25.1992C94.5074 25.5013 94.6168 25.8451 94.6533 26.2305H93.4814C93.4684 26.0013 93.4228 25.8073 93.3447 25.6484C93.2666 25.487 93.1481 25.3659 92.9892 25.2852C92.833 25.2018 92.6246 25.1602 92.3642 25.1602C92.1689 25.1602 91.9983 25.1966 91.8525 25.2695C91.7067 25.3424 91.5843 25.4531 91.4853 25.6016C91.3864 25.75 91.3121 25.9375 91.2627 26.1641C91.2158 26.388 91.1923 26.651 91.1923 26.9531V27.3555C91.1923 27.6497 91.2145 27.9089 91.2588 28.1328C91.303 28.3542 91.3707 28.5417 91.4619 28.6953C91.5556 28.8464 91.6754 28.9609 91.8213 29.0391C91.9697 29.1146 92.1481 29.1523 92.3564 29.1523C92.6012 29.1523 92.803 29.1133 92.9619 29.0352C93.1207 28.957 93.2418 28.8411 93.3252 28.6875C93.4111 28.5339 93.4619 28.3424 93.4775 28.1133ZM104.968 26.6289V27.543H101.999V26.6289H104.968ZM102.347 24.3125V30H101.175V24.3125H102.347ZM105.804 24.3125V30H104.636V24.3125H105.804ZM114.798 27.9727H113.349V27.0586H114.798C115.022 27.0586 115.205 27.0221 115.345 26.9492C115.486 26.8737 115.589 26.7695 115.654 26.6367C115.719 26.5039 115.751 26.3542 115.751 26.1875C115.751 26.0182 115.719 25.8607 115.654 25.7148C115.589 25.569 115.486 25.4518 115.345 25.3633C115.205 25.2747 115.022 25.2305 114.798 25.2305H113.755V30H112.583V24.3125H114.798C115.244 24.3125 115.625 24.3932 115.943 24.5547C116.263 24.7135 116.508 24.9336 116.677 25.2148C116.846 25.4961 116.931 25.8177 116.931 26.1797C116.931 26.5469 116.846 26.8646 116.677 27.1328C116.508 27.401 116.263 27.6081 115.943 27.7539C115.625 27.8997 115.244 27.9727 114.798 27.9727ZM125.164 25.2852L123.617 30H122.371L124.484 24.3125H125.277L125.164 25.2852ZM126.449 30L124.898 25.2852L124.773 24.3125H125.574L127.699 30H126.449ZM126.379 27.8828V28.8008H123.375V27.8828H126.379ZM135.732 30H134.494L134.502 29.0859H135.732C136.04 29.0859 136.299 29.0169 136.51 28.8789C136.721 28.7383 136.879 28.5339 136.986 28.2656C137.096 27.9974 137.15 27.6732 137.15 27.293V27.0156C137.15 26.724 137.119 26.4674 137.057 26.2461C136.997 26.0247 136.907 25.8385 136.787 25.6875C136.667 25.5365 136.52 25.4232 136.346 25.3477C136.171 25.2695 135.971 25.2305 135.744 25.2305H134.471V24.3125H135.744C136.124 24.3125 136.472 24.3776 136.787 24.5078C137.105 24.6354 137.379 24.819 137.611 25.0586C137.843 25.2982 138.021 25.5846 138.146 25.918C138.274 26.2487 138.338 26.6172 138.338 27.0234V27.293C138.338 27.6966 138.274 28.0651 138.146 28.3984C138.021 28.7318 137.843 29.0182 137.611 29.2578C137.382 29.4948 137.107 29.6784 136.787 29.8086C136.469 29.9362 136.118 30 135.732 30ZM135.158 24.3125V30H133.986V24.3125H135.158Z" fill="url(#paint1_linear_5803_156)"/>
<defs>
<linearGradient id="paint0_linear_5803_156" x1="4.8" y1="27.2" x2="27.4338" y2="4.56615" gradientUnits="userSpaceOnUse">
<stop stop-color="#C91857"/>
<stop offset="1" stop-color="#3F0C78"/>
</linearGradient>
<linearGradient id="paint1_linear_5803_156" x1="46" y1="27" x2="139" y2="27" gradientUnits="userSpaceOnUse">
<stop stop-color="#DC276C"/>
<stop offset="1" stop-color="#AE1E55"/>
</linearGradient>
</defs>
</svg>
